<?xml version="1.0" encoding="utf-8"?>
<!-- Generator: Adobe Illustrator 27.0.1, SVG Export Plug-In . SVG Version: 6.00 Build 0)  -->
<svg version="1.1" id="Layer_2_00000144295805096766426560000007786099452063966888_"
	 xmlns="http://www.w3.org/2000/svg" xmlns:xlink="http://www.w3.org/1999/xlink" x="0px" y="0px" viewBox="0 0 70 71.6"
	 style="enable-background:new 0 0 70 71.6;" xml:space="preserve">
<style type="text/css">
	.st0{fill:#2E16E6;}
</style>
<g>
	<path class="st0" d="M59,0H30c-4.4,2.1-6.7,6-7,11.7h29C56.4,9.7,58.7,5.7,59,0L59,0z"/>
	<path class="st0" d="M36,29.9H7c-4.4,2.1-6.7,6-7,11.7h29C33.4,39.6,35.7,35.7,36,29.9L36,29.9z"/>
	<path class="st0" d="M58.1,59.9h-29c-4.4,2.1-6.7,6-7,11.7h29C55.5,69.6,57.8,65.6,58.1,59.9L58.1,59.9z"/>
	<path class="st0" d="M69,15H18.1c-4.4,2.1-6.7,6-7,11.7H62C66.4,24.7,68.7,20.7,69,15L69,15z"/>
	<path class="st0" d="M70,44.9H19.1c-4.4,2.1-6.7,6-7,11.7H63C67.4,54.6,69.7,50.7,70,44.9L70,44.9z"/>
</g>
</svg>
